<?xml version="1.0" encoding="utf-8"?>
<!-- Generator: Adobe Illustrator 24.2.2, SVG Export Plug-In . SVG Version: 6.00 Build 0)  -->
<svg version="1.1" id="Layer_1" xmlns="http://www.w3.org/2000/svg" xmlns:xlink="http://www.w3.org/1999/xlink" x="0px" y="0px"
	 viewBox="0 0 1000 1000" style="enable-background:new 0 0 1000 1000;" xml:space="preserve">
<style type="text/css">
	.st0{fill:#AB2A24;}
	.st1{fill:#828576;}
	.st2{fill:#FFFFFF;}
</style>
<g>
	<g>
		<g>
			<path class="st0" d="M500,598.3c-124.3,0-241.2-9.4-329.3-26.6c-97.9-19-145.5-43.8-145.5-75.8c0-32,47.6-56.8,145.5-75.8
				c88.1-17.1,205-26.6,329.3-26.6s241.2,9.4,329.3,26.6c97.9,19,145.5,43.8,145.5,75.8c0,32-47.6,56.8-145.5,75.8
				C741.2,588.8,624.3,598.3,500,598.3z"/>
		</g>
		<g>
			<ellipse cx="500" cy="495.9" rx="462.3" ry="89.9"/>
		</g>
	</g>
	<g>
		<g>
			<g>
				<path class="st1" d="M122.2,547.4c-8.3,0-15.8-3.2-21.8-9.2c-7.1-7.2-11.3-18-11.2-28.8c0.2-17.5,17.1-34.7,34.1-34.7
					c0.5,0,0.9,0,1.4,0c16.2,0.9,24.7,11.7,25.1,12.2l1.2,1.5l-11.9,15.2l-2-2.3c-3.4-3.9-7.7-6-12.2-6c-6.1,0-11.4,3.8-13.2,9.4
					c-1.8,5.7-1,12.3,2.3,17c2.3,3.4,5.7,5.4,9.4,5.6c0.3,0,0.7,0,1,0c9.1,0,14-7.1,14.2-7.4l1.8-2.7l12.2,14.2l-0.9,1.5
					c-0.3,0.6-8.1,13.8-28.9,14.3L122.2,547.4z"/>
			</g>
			<g>
				<path class="st1" d="M139.1,499.8l8.8-11.3c0,0-8-10.3-23.3-11.2c-15.2-0.9-32.6,14.8-32.8,32.2c-0.2,17.4,11.5,35.9,31.1,35.5
					c19.6-0.4,26.8-13.1,26.8-13.1l-8.9-10.4c0,0-6.1,9.1-17.4,8.5s-17.6-14.4-13.9-25.9C113.1,492.5,128.9,488.2,139.1,499.8z"/>
			</g>
			<g>
				<path class="st1" d="M256.1,549.1c-8.3,0-15.8-3.2-21.8-9.2c-7.1-7.2-11.3-18-11.2-28.8c0.2-17.5,17.1-34.7,34.1-34.7
					c0.5,0,0.9,0,1.4,0c16.2,0.9,24.7,11.7,25.1,12.2l1.2,1.5L273,505.4l-2-2.3c-3.4-3.9-7.7-6-12.2-6c-6.1,0-11.4,3.8-13.2,9.4
					c-1.8,5.7-1,12.3,2.3,17c2.3,3.4,5.7,5.4,9.4,5.6c0.3,0,0.7,0,1,0c9.1,0,14-7.1,14.2-7.4l1.8-2.7l12.2,14.2l-0.9,1.5
					c-0.3,0.6-8.1,13.8-28.9,14.3L256.1,549.1z"/>
			</g>
			<g>
				<path class="st1" d="M272.9,501.5l8.8-11.3c0,0-8-10.3-23.3-11.2c-15.2-0.9-32.6,14.8-32.8,32.2s11.5,35.9,31.1,35.5
					s26.8-13.1,26.8-13.1l-8.9-10.4c0,0-6.1,9.1-17.4,8.5c-11.3-0.7-17.6-14.4-13.9-25.9S262.8,489.9,272.9,501.5z"/>
			</g>
			<g>
				<path class="st1" d="M505.2,550.1c-8.3,0-15.8-3.2-21.8-9.2c-7.1-7.2-11.3-18-11.2-28.8c0.2-17.5,17.1-34.7,34.1-34.7
					c0.5,0,0.9,0,1.4,0c16.2,0.9,24.7,11.7,25.1,12.2l1.2,1.5l-11.9,15.2l-2-2.3c-3.4-3.9-7.7-6-12.2-6c-6.1,0-11.4,3.8-13.2,9.4
					c-1.8,5.7-1,12.3,2.3,17c2.3,3.4,5.7,5.4,9.4,5.6c0.3,0,0.7,0,1,0c9.1,0,14-7.1,14.2-7.4l1.8-2.7l12.2,14.2l-0.9,1.5
					c-0.3,0.6-8.1,13.8-28.9,14.3L505.2,550.1z"/>
			</g>
			<g>
				<path class="st1" d="M522.1,502.4l8.8-11.3c0,0-8-10.3-23.3-11.2c-15.2-0.9-32.6,14.8-32.8,32.2c-0.2,17.4,11.5,35.9,31.1,35.5
					c19.6-0.4,26.8-13.1,26.8-13.1l-8.9-10.4c0,0-6.1,9.1-17.4,8.5c-11.3-0.7-17.6-14.4-13.9-25.9S512,490.8,522.1,502.4z"/>
			</g>
			<g>
				<polygon class="st1" points="179.5,518.4 179.5,544.8 157.8,544.8 157.8,471.7 195.2,505.5 195.2,477.9 216.9,477.9 
					216.9,552.1 				"/>
			</g>
			<g>
				<polygon class="st1" points="160.3,542.3 177,542.3 177,512.8 214.4,546.5 214.4,480.3 197.7,480.3 197.7,511.1 160.3,477.3 
									"/>
			</g>
			<g>
				<polygon class="st1" points="663.5,522.2 663.5,548.7 641.8,548.7 641.8,475.5 679.2,509.3 679.2,481.7 700.9,481.7 
					700.9,555.9 				"/>
			</g>
			<g>
				<polygon class="st1" points="644.3,546.2 661,546.2 661,516.6 698.4,550.3 698.4,484.2 681.7,484.2 681.7,515 644.3,481.1 				
					"/>
			</g>
			<g>
				<polygon class="st1" points="763,522.2 763,548.7 741.3,548.7 741.3,475.5 778.7,509.3 778.7,481.7 800.4,481.7 800.4,555.9 
									"/>
			</g>
			<g>
				<polygon class="st1" points="743.8,546.2 760.5,546.2 760.5,516.6 797.9,550.3 797.9,484.2 781.2,484.2 781.2,515 743.8,481.1 
									"/>
			</g>
			<g>
				<polygon class="st1" points="341.5,529.3 341.5,547.4 320.3,547.4 320.3,473 356.3,516.2 392.3,473 392.3,547.4 371,547.4 
					371,528.9 355.8,550.9 				"/>
			</g>
			<g>
				<path class="st1" d="M322.8,545H339v-24l16.8,25.5l17.7-25.5v24h16.2c0-2,0-65.1,0-65.1l-33.5,40.2l-33.5-40.2V545z"/>
			</g>
			<g>
				<path class="st1" d="M422.7,537.4l-5.4,10.1h-26.7l42.7-73.4l42.8,73.4h-26.1l-5.3-9.7l-11.5,12.7L422.7,537.4z M440,528.9
					l-6.4-11.8l-6.3,11.8H440z"/>
			</g>
			<g>
				<path class="st1" d="M433.4,479L395,545h20.9l6.4-12l11.1,13.7l11.9-13.2l6.2,11.5h20.3L433.4,479z M423.1,531.4l10.4-19.5
					l10.6,19.5H423.1z"/>
			</g>
			<g>
				<rect x="540.4" y="480.9" class="st1" width="22.6" height="68.1"/>
			</g>
			<g>
				<rect x="542.9" y="483.4" class="st1" width="17.6" height="63.1"/>
			</g>
			<g>
				<rect x="581.3" y="480.9" class="st1" width="22.6" height="68.1"/>
			</g>
			<g>
				<rect x="583.8" y="483.4" class="st1" width="17.6" height="63.1"/>
			</g>
			<g>
				<polygon class="st1" points="553.3,502.9 592.5,502.9 572.1,525.1 				"/>
			</g>
			<g>
				<polygon class="st1" points="558.7,505.4 586.9,505.4 572.2,521.3 				"/>
			</g>
			<g>
				<rect x="612" y="480.9" class="st1" width="21.8" height="68.1"/>
			</g>
			<g>
				<rect x="614.5" y="483.4" class="st1" width="16.9" height="63.1"/>
			</g>
			<g>
				<path class="st1" d="M841.7,551.2c-10.1,0-19.3-3.7-25.8-10.3c-6.3-6.4-9.6-14.9-9.5-24c0.1-3.7,0.8-7.5,2.2-11.2
					c3.4-9,10.1-16.8,18.6-21.4c4.6-2.5,9.8-3.8,15.4-3.8c4.9,0,10.1,1,15.2,3c0.1,0,8.3,3.4,9.1,5.9l0.4,1.2l-0.7,1.1l-9.8,14.2
					l-2.1-1.7c-4.9-3.9-10.1-4-10.2-4c-0.4,0-0.7,0-1,0c-3.7,0-7.3,1.4-10.2,3.9c-5.1,4.5-7.1,11.1-5.2,17.3
					c2,6.7,8.2,11.4,14.9,11.4c0,0,0,0,0,0c3.9,0,6.6-0.9,8.2-2.7c1-1.1,1.5-2.3,1.7-3.3h-11.8v-16.3h35.5l-0.4,11.1
					c-0.3,10.2-11.7,28.8-33,29.5C842.7,551.2,842.2,551.2,841.7,551.2z"/>
			</g>
			<g>
				<path class="st1" d="M856.2,502.2c0,0,8.3-12,8.3-12c0.4-0.6-7.2-4.3-7.6-4.4c-9.3-3.6-19.6-4.1-28.5,0.7
					c-7.9,4.3-14.3,11.7-17.4,20.1c-1.2,3.3-2,6.8-2,10.3c-0.3,17.8,13.9,32.5,34.2,31.8c20.3-0.7,30.3-18.6,30.6-27.1
					s0.3-8.6,0.3-8.6h-30.5v11.3h12c0,0,0.9,11.2-12.8,11c-8-0.1-14.9-5.6-17.2-13.2c-2.2-7.3,0.3-14.9,6-19.9
					c3.6-3.1,8.1-4.8,12.9-4.5C844.4,497.7,850.5,497.7,856.2,502.2z"/>
			</g>
			<g>
				<rect x="710.8" y="482.2" class="st1" width="21.8" height="66.8"/>
			</g>
			<g>
				<rect x="713.3" y="484.7" class="st1" width="16.8" height="61.8"/>
			</g>
		</g>
		<g>
			<g>
				<path d="M118.4,538.5c-8,0-15.2-3-20.9-8.8c-6.9-7-10.9-17.4-10.8-27.9c0.2-16.9,16.5-33.5,32.9-33.5c0.4,0,0.9,0,1.3,0
					c15.6,0.9,23.8,11.2,24.2,11.7l0.6,0.8l-10.3,13.3l-1-1.1c-3.6-4.1-8.3-6.4-13.2-6.4c-6.6,0-12.4,4.1-14.4,10.2
					c-2,6.1-1,13,2.5,18.1c2.6,3.7,6.2,5.9,10.4,6.2c0.4,0,0.7,0,1.1,0c9.8,0,15.2-7.9,15.2-8l0.9-1.4l10.6,12.4l-0.4,0.8
					c-0.3,0.5-7.8,13.2-27.8,13.7L118.4,538.5z"/>
			</g>
			<g>
				<path class="st2" d="M135.3,492.1l8.8-11.3c0,0-8-10.3-23.3-11.2c-15.2-0.9-32.6,14.8-32.8,32.2c-0.2,17.4,11.5,35.9,31.1,35.5
					s26.8-13.1,26.8-13.1l-8.9-10.4c0,0-6.1,9.1-17.4,8.5c-11.3-0.7-17.6-14.4-13.9-25.9C109.3,484.8,125.2,480.5,135.3,492.1z"/>
			</g>
			<g>
				<path d="M252.3,540.2c-8,0-15.2-3-20.9-8.8c-6.9-7-10.9-17.4-10.8-27.9c0.2-16.9,16.5-33.5,32.9-33.5c0.4,0,0.9,0,1.3,0
					c15.6,0.9,23.8,11.2,24.2,11.7l0.6,0.8l-10.3,13.3l-1-1.1c-3.6-4.1-8.3-6.4-13.2-6.4c-6.6,0-12.4,4.1-14.4,10.2
					c-2,6.1-1,13,2.5,18.1c2.6,3.7,6.2,5.9,10.4,6.2c0.4,0,0.7,0,1.1,0c9.7,0,15.2-7.9,15.2-8l0.9-1.4l10.6,12.4l-0.4,0.8
					c-0.3,0.5-7.8,13.2-27.8,13.7L252.3,540.2z"/>
			</g>
			<g>
				<path class="st2" d="M269.2,493.8l8.8-11.3c0,0-8-10.3-23.3-11.2c-15.2-0.9-32.6,14.8-32.8,32.2c-0.2,17.4,11.5,35.9,31.1,35.5
					c19.6-0.4,26.8-13.1,26.8-13.1l-8.9-10.4c0,0-6.1,9.1-17.4,8.5c-11.3-0.7-17.6-14.4-13.9-25.9
					C243.2,486.5,259.1,482.2,269.2,493.8z"/>
			</g>
			<g>
				<path d="M501.4,541.1c-8,0-15.2-3-20.9-8.8c-6.9-7-10.9-17.4-10.8-27.9c0.2-16.9,16.5-33.5,32.9-33.5c0.4,0,0.9,0,1.3,0
					c15.6,0.9,23.8,11.2,24.2,11.7l0.6,0.8l-10.3,13.3l-1-1.1c-3.6-4.1-8.3-6.4-13.2-6.4c-6.6,0-12.4,4.1-14.4,10.2
					c-2,6.1-1,13,2.5,18.1c2.6,3.7,6.2,5.9,10.4,6.2c0.4,0,0.7,0,1.1,0c9.7,0,15.2-7.9,15.2-8l0.9-1.4l10.6,12.4l-0.4,0.8
					c-0.3,0.5-7.8,13.2-27.8,13.7L501.4,541.1z"/>
			</g>
			<g>
				<path class="st2" d="M518.3,494.8l8.8-11.3c0,0-8-10.3-23.3-11.2c-15.2-0.9-32.6,14.8-32.8,32.2c-0.2,17.4,11.5,35.9,31.1,35.5
					c19.6-0.4,26.8-13.1,26.8-13.1l-8.9-10.4c0,0-6.1,9.1-17.4,8.5c-11.3-0.7-17.6-14.4-13.9-25.9
					C492.3,487.5,508.2,483.1,518.3,494.8z"/>
			</g>
			<g>
				<polygon points="174.5,507.9 174.5,535.9 155.3,535.9 155.3,466.8 192.7,500.6 192.7,471.4 211.9,471.4 211.9,541.6 				"/>
			</g>
			<g>
				<polygon class="st2" points="156.5,534.7 173.3,534.7 173.3,505.1 210.7,538.8 210.7,472.7 193.9,472.7 193.9,503.4 
					156.5,469.6 				"/>
			</g>
			<g>
				<polygon points="658.5,511.7 658.5,539.7 639.2,539.7 639.2,470.6 676.7,504.5 676.7,475.3 695.9,475.3 695.9,545.4 				"/>
			</g>
			<g>
				<polygon class="st2" points="640.5,538.5 657.2,538.5 657.2,508.9 694.7,542.6 694.7,476.5 677.9,476.5 677.9,507.3 
					640.5,473.4 				"/>
			</g>
			<g>
				<polygon points="758,511.7 758,539.7 738.7,539.7 738.7,470.6 776.2,504.5 776.2,475.3 795.4,475.3 795.4,545.4 				"/>
			</g>
			<g>
				<polygon class="st2" points="740,538.5 756.7,538.5 756.7,508.9 794.1,542.6 794.1,476.5 777.4,476.5 777.4,507.3 740,473.4 
									"/>
			</g>
			<g>
				<polygon points="336.5,517.4 336.5,538.5 317.8,538.5 317.8,468.8 352.5,510.4 387.3,468.8 387.3,538.5 368.5,538.5 
					368.5,517.2 352,541 				"/>
			</g>
			<g>
				<path class="st2" d="M319,537.3h16.2v-24l16.8,25.5l17.7-25.5v24H386c0-2,0-65.1,0-65.1l-33.5,40.2L319,472.2V537.3z"/>
			</g>
			<g>
				<path d="M418.8,527.5l-5.9,11.1h-23.8l40.6-69.7l40.6,69.7H447l-5.7-10.6l-11.7,12.9L418.8,527.5z M438.3,522.5l-8.5-15.7
					l-8.4,15.7H438.3z"/>
			</g>
			<g>
				<path class="st2" d="M429.7,471.3l-38.4,66h20.9l6.4-12l11.1,13.7l11.9-13.2l6.2,11.5h20.3L429.7,471.3z M419.4,523.7l10.4-19.5
					l10.6,19.5H419.4z"/>
			</g>
			<g>
				<rect x="537.9" y="474.5" width="20.1" height="65.6"/>
			</g>
			<g>
				<rect x="539.2" y="475.7" class="st2" width="17.6" height="63.1"/>
			</g>
			<g>
				<rect x="578.8" y="474.5" width="20.1" height="65.6"/>
			</g>
			<g>
				<rect x="580.1" y="475.7" class="st2" width="17.6" height="63.1"/>
			</g>
			<g>
				<polygon points="552.3,496.4 585.9,496.4 568.4,515.5 				"/>
			</g>
			<g>
				<polygon class="st2" points="554.9,497.7 583.1,497.7 568.4,513.7 				"/>
			</g>
			<g>
				<rect x="609.5" y="474.5" width="19.3" height="65.6"/>
			</g>
			<g>
				<rect x="610.7" y="475.7" class="st2" width="16.9" height="63.1"/>
			</g>
			<g>
				<path d="M837.9,542.2c-9.8,0-18.6-3.5-24.9-9.9c-6-6.1-9.3-14.3-9.1-23.1c0.1-3.6,0.8-7.2,2.1-10.8c3.3-8.8,9.8-16.3,18-20.7
					c4.5-2.4,9.4-3.6,14.8-3.6c4.8,0,9.7,1,14.7,2.9c0.1,0,7.9,3.4,8.4,5.1l0.2,0.6l-0.4,0.6c0,0-9,13.1-9,13.1l-1-0.8
					c-5.3-4.2-10.9-4.2-11-4.2c-0.4,0-0.7,0-1,0c-4,0-7.9,1.5-11,4.2c-5.5,4.8-7.6,11.9-5.6,18.6c2.2,7.2,8.8,12.2,16.1,12.3
					c0,0,0,0,0,0c4.3,0,7.3-1,9.2-3.1c1.7-1.8,2.2-4.1,2.3-5.4h-12V504h33l-0.3,9.8c-0.3,9.8-11.2,27.6-31.8,28.3
					C838.9,542.2,838.4,542.2,837.9,542.2z"/>
			</g>
			<g>
				<path class="st2" d="M852.4,494.6c0,0,8.3-12,8.3-12c0.4-0.6-7.2-4.3-7.6-4.4c-9.3-3.6-19.6-4.1-28.5,0.7
					c-7.9,4.3-14.3,11.7-17.4,20.1c-1.2,3.3-2,6.8-2,10.3c-0.3,17.8,13.9,32.5,34.2,31.8c20.3-0.7,30.3-18.6,30.6-27.1
					s0.3-8.6,0.3-8.6h-30.5v11.3h12c0,0,0.9,11.2-12.8,11c-8-0.1-14.9-5.6-17.2-13.2c-2.2-7.3,0.3-14.9,6-19.9
					c3.6-3.1,8.1-4.8,12.9-4.5C840.7,490.1,846.8,490.1,852.4,494.6z"/>
			</g>
			<g>
				<rect x="708.3" y="475.8" width="19.3" height="64.3"/>
			</g>
			<g>
				<rect x="709.6" y="477" class="st2" width="16.8" height="61.8"/>
			</g>
		</g>
	</g>
	<g>
		<path class="st2" d="M208.3,461.4c-0.3-0.8-0.8-1.7-1.8-1.7c-0.6,0-1.4,0.5-1.9,0.7c-2.3,1.1-4.3,1.7-6.9,1.7
			c-8.7,0-15.1-6.7-15.1-14.6c0-7.6,6.6-15.3,15.2-15.3c2.1,0,4.5,0.8,6.5,1.5c0.7,0.3,1.4,0.7,2.2,0.7c0.8,0,1.2-0.4,1.4-1l0.1-0.2
			h0.6l0,9.5h-0.9c-0.5-2.1-1.2-3.9-2.7-5.6c-1.8-2.1-4.4-4-7.4-4c-7.5,0-7.7,10-7.7,14.9c0,3,0.5,8.6,2.4,11.1
			c1.1,1.5,3.2,2.3,5.1,2.3c5.8,0,9.8-5.1,10.6-9.9h0.7v10H208.3z"/>
		<path class="st2" d="M223.7,461.9c-5.7,0-11-4-11-9.5c0-5.4,5.3-9.4,11-9.4c5.7,0,11.1,3.9,11.1,9.5S229.5,461.9,223.7,461.9z
			 M228.1,448.4c0-2.9-0.9-4.8-4.3-4.8c-3.3,0-4.3,2-4.3,4.8v7.9c0,2.8,1.1,4.8,4.3,4.8c3.4,0,4.3-1.9,4.3-4.8V448.4z"/>
		<path class="st2" d="M251.4,461.4v-0.7h2.8V447c0-1.7-1.2-2.6-2.9-2.6c-3.2,0-5.6,2.9-5.6,5.7v10.5h2.8v0.7h-11.5v-0.7h2.8v-16.5
			h-2.8v-0.7h4.6c1.5,0,3.2,0,4.2-1.3v4.8c1.6-2.7,4.6-4,7.8-4c2.1,0,4.2,0.6,5.6,2.1c0.9,0.9,1.2,2.1,1.2,3.4v12.2h2.8v0.7H251.4z"
			/>
		<path class="st2" d="M271.9,461.8c-3.5,0-5.3-2.1-5.3-5.2v-12.3h-2.4v-0.7h0.2c4.3,0,7.4-5,7.4-8.5h0.6v8.5h4.2v0.7h-4.2v13.4
			c0,1.2,0.2,2.5,1.8,2.5c1.1,0,1.8-0.9,2.4-1.7l0.5,0.3C276,460.5,274.1,461.8,271.9,461.8z"/>
		<path class="st2" d="M292.6,449.2c-1.8,0-3-1.2-3-2.8c0-0.9,0.3-1.5,0.9-2.1c-3.3,0.8-3.6,4.1-3.6,6.7v9.7h3.6v0.7h-12.3v-0.7h2.8
			v-16.5h-2.8v-0.7h4.5c1.5,0,3.2,0,4.2-1.3v4c1-1.9,3.1-3.3,5.4-3.3c2,0,3.4,1.2,3.4,3.1C295.8,447.6,294.6,449.2,292.6,449.2z"/>
		<path class="st2" d="M314.9,461.8c-2,0-3.4-0.8-4.1-2.5c-1.4,1.9-3.9,2.5-6.3,2.5c-3.4,0-8-1.1-8-5c0-6.1,9.7-5.8,14.1-6l0-2.9
			c0-3.3-0.8-4.4-4.5-4.4c-1,0-2.8,0.1-3.7,0.6c-0.2,0.1-0.9,0.5-0.9,0.8c0,0.5,2.4,0.4,2.4,2.6c0,1.5-1.2,2.5-2.8,2.5
			c-1.7,0-2.8-1.2-2.8-2.7c0-3.5,5.3-4.4,8.1-4.4c2.5,0,5.5,0.5,7.7,1.8c1.9,1.1,2.3,2.6,2.3,4.6v8.7c0,0.8,0,2.1,1.2,2.1
			c1.1,0,1.4-1.5,1.6-2.2l0.6,0.1C319.5,460.4,317.7,461.8,314.9,461.8z M310.7,451.5c-1.6,0-5.1,0.1-6.5,0.9
			c-1.4,0.8-1.5,2.4-1.5,3.8c0,2.5,0.7,4.4,3.8,4.4c3,0,4.3-1.8,4.3-4.4V451.5z"/>
		<path class="st2" d="M338.3,460.2c-1.7,1.2-3.9,1.7-6,1.7c-5.6,0-11.3-3.7-11.3-9.2c0-5.8,5.7-9.8,11.7-9.8c3.1,0,8.1,1.2,8.1,4.8
			c0,1.7-1.3,2.8-3.1,2.8c-1.7,0-3.1-1.2-3.1-2.8c0-1.8,1.7-2.3,1.7-2.8c0-0.9-2.8-1.3-3.6-1.3c-1.9,0-4,0.6-4.7,2.4
			c-0.5,1.5-0.5,4.2-0.5,5.8c0,1.7,0,6.4,1.1,7.8c0.9,1.2,2.4,1.4,3.8,1.4c4.2,0,6.9-1.8,7.8-5.6h0.8
			C340.7,457.5,340.1,458.9,338.3,460.2z"/>
		<path class="st2" d="M349.7,461.8c-3.5,0-5.3-2.1-5.3-5.2v-12.3h-2.4v-0.7h0.2c4.3,0,7.4-5,7.4-8.5h0.6v8.5h4.2v0.7h-4.2v13.4
			c0,1.2,0.2,2.5,1.8,2.5c1.1,0,1.8-0.9,2.4-1.7l0.5,0.3C353.8,460.5,351.9,461.8,349.7,461.8z"/>
		<path class="st2" d="M356.1,461.4v-0.7h2.8v-16.5h-2.8v-0.7h4.6c1.6,0,3.1,0,4.2-1.3v18.5h2.8v0.7H356.1z M361.6,439.2
			c-1.9,0-3.5-1.5-3.5-3.2c0-1.8,1.6-3.2,3.5-3.2c1.9,0,3.5,1.5,3.5,3.2C365.1,437.7,363.6,439.2,361.6,439.2z"/>
		<path class="st2" d="M383.4,461.4v-0.7h2.8V447c0-1.7-1.2-2.6-2.9-2.6c-3.2,0-5.6,2.9-5.6,5.7v10.5h2.8v0.7h-11.5v-0.7h2.8v-16.5
			h-2.8v-0.7h4.6c1.5,0,3.2,0,4.2-1.3v4.8c1.6-2.7,4.6-4,7.8-4c2.1,0,4.2,0.6,5.6,2.1c0.9,0.9,1.2,2.1,1.2,3.4v12.2h2.8v0.7H383.4z"
			/>
		<path class="st2" d="M416.2,447c-1.2,0-2.2-0.9-2.2-2c0-0.7,0.3-1.4,1-1.7c-1.2,0.3-1.8,0.7-2.5,1.7c1.1,1.1,1.8,2.5,1.8,4
			c0,4.1-5.1,5.9-8.9,5.9c-0.6,0-1.3,0-1.9-0.2c-0.3,0-0.6-0.2-1-0.2c-0.1,0-0.3,0-0.4,0c-1.2,0-3.6,0.8-3.6,2.1
			c0,1.2,2.6,1.2,3.5,1.2c1.8,0,3.6-0.1,5.3-0.1c2,0,5.3-0.2,6.9,1.2c1.3,1.2,1.8,2.7,1.8,4.4c0,5.7-5.1,8.9-10.9,8.9
			c-3.3,0-9.3-1.5-9.3-5.4c0-1.9,2-3.5,3.8-4.1c-1.9-0.6-2.9-2.3-2.9-4.1c0-2.7,1.6-4,4.4-4.5c-2.2-1.2-3.7-2.5-3.7-5
			c0-4.1,4.7-6.1,8.5-6.1c2.3,0,4,0.6,5.9,1.6c0.9-1.1,1.9-1.9,3.5-1.9c1.5,0,2.9,0.9,2.9,2.3C418.3,446.1,417.5,447,416.2,447z
			 M413.9,464c-1-1.2-4.6-1.2-6.1-1.2c-1.9,0-3.7,0-5.5,0c-0.6,0-1.3,0-1.9,0c-1.1,1-1.9,2.2-1.9,3.6c0,3.3,3.7,4.8,6.8,4.8
			c3.7,0,9-1.9,9-5.9C414.4,464.9,414.3,464.4,413.9,464z M409.1,446.9c0-2.2-0.6-3.3-3.1-3.3c-2.4,0-3.2,0.9-3.3,3.1
			c0,0.8-0.1,1.7-0.1,2.5v1.8c0,2.1,0.8,3.3,3.2,3.3c2.7,0,3.2-1.1,3.2-3.4c0-0.6,0-1.3,0-1.9V446.9z"/>
	</g>
	<g>
		<path class="st2" d="M878.5,514.5v-0.8h3.3V487h-3.3v-0.8h12.9v0.8H888v26.6h3.3v0.8H878.5z"/>
		<path class="st2" d="M906.3,514.5v-0.7h2.5v-13.6c0-1.7-1.1-2.5-2.7-2.5c-3,0-5.2,2.9-5.2,5.7v10.5h2.5v0.7H893v-0.7h2.5v-16.4
			H893v-0.7h4.2c1.4,0,2.9,0,3.8-1.3v4.8c1.4-2.7,4.2-3.9,7.2-3.9c1.9,0,3.9,0.6,5.1,2.1c0.8,0.9,1.1,2.1,1.1,3.4v12.1h2.5v0.7
			H906.3z"/>
		<path class="st2" d="M934.5,513.2c-1.5,1.2-3.6,1.7-5.5,1.7c-5.2,0-10.4-3.6-10.4-9.2c0-5.8,5.2-9.8,10.7-9.8
			c2.8,0,7.4,1.2,7.4,4.8c0,1.7-1.2,2.8-2.8,2.8c-1.6,0-2.8-1.1-2.8-2.8c0-1.8,1.6-2.3,1.6-2.8c0-0.9-2.6-1.3-3.3-1.3
			c-1.7,0-3.7,0.6-4.3,2.4c-0.5,1.5-0.4,4.2-0.4,5.8c0,1.7,0,6.4,1,7.8c0.8,1.1,2.2,1.4,3.5,1.4c3.8,0,6.3-1.8,7.2-5.6h0.8
			C936.7,510.5,936.1,512,934.5,513.2z"/>
		<path class="st2" d="M942.9,514.8c-1.8,0-3.3-1.5-3.3-3.3s1.5-3.3,3.3-3.3s3.2,1.5,3.2,3.3S944.7,514.8,942.9,514.8z"/>
	</g>
	<g>
		<path class="st1" d="M139.5,637.6c0-0.5,0-1.2-0.1-1.9c2.6,1.2,5,1.9,7.2,1.9c1.2,0,2.4-0.2,3.4-0.6c1-0.4,1.8-1,2.3-1.8
			c0.5-0.8,0.8-1.7,0.8-2.7c0-0.5-0.1-1-0.3-1.5c-0.2-0.5-0.5-0.9-0.8-1.4c-0.4-0.5-1-1.1-1.7-1.9s-2.1-1.9-4-3.5l-1.6-1.4
			c-0.6-0.5-1.1-1-1.6-1.6s-1-1-1.3-1.5c-0.3-0.5-0.6-0.9-0.8-1.3c-0.2-0.4-0.3-0.8-0.4-1.2s-0.1-0.9-0.1-1.4c0-1.1,0.3-2.2,0.9-3.1
			c0.6-1,1.5-1.7,2.7-2.3c1.2-0.6,2.7-0.9,4.6-0.9c1.3,0,2.9,0.2,4.9,0.6c0,0.5,0.1,1.1,0.2,1.7c-1.3-0.4-2.3-0.7-3.2-0.8
			s-1.7-0.2-2.4-0.2c-1.4,0-2.5,0.2-3.4,0.7s-1.6,1.1-2.1,1.8c-0.5,0.8-0.7,1.6-0.7,2.4c0,0.4,0.1,0.9,0.2,1.3
			c0.1,0.4,0.4,0.9,0.7,1.3c0.3,0.4,0.7,0.9,1.3,1.4c0.5,0.5,1.1,1.1,1.9,1.8c0.7,0.7,1.7,1.5,2.9,2.6c1.2,1,2,1.8,2.5,2.2
			s1,0.9,1.4,1.4c0.4,0.5,0.8,1,1.1,1.5c0.3,0.5,0.5,1,0.6,1.5c0.1,0.5,0.2,1.1,0.2,1.7c0,1.3-0.3,2.5-1,3.4s-1.6,1.7-2.9,2.2
			s-2.7,0.8-4.3,0.8c-1,0-2-0.1-3-0.2C142.4,638.5,141.1,638.1,139.5,637.6z"/>
		<path class="st1" d="M158.9,647.7l0.2-4.2l0.7-18.8l0.1-6.3c1.8-0.5,3.4-0.8,4.7-1s2.7-0.3,3.9-0.3c2,0,3.8,0.3,5.3,1
			c1.5,0.7,2.6,1.9,3.4,3.5c0.8,1.7,1.2,3.6,1.2,5.7c0,2.2-0.4,4.3-1.3,6.2c-0.9,1.9-2,3.3-3.5,4.1c-1.5,0.9-3.1,1.3-4.9,1.3
			c-0.8,0-1.6-0.1-2.4-0.3c-0.8-0.2-1.5-0.5-2.2-0.8c-0.7-0.4-1.2-0.8-1.7-1.4c-0.5-0.5-1-1.4-1.6-2.5l-0.3,11v0.7c0,0.5,0,1.1,0,2
			c-0.4,0-0.6,0-0.9,0C159.6,647.7,159.3,647.7,158.9,647.7z M161.6,619.6c-0.1,1.2-0.2,2.9-0.3,5.1c-0.1,2.2-0.1,3.6-0.1,4.4
			c0,1.2,0.1,2.3,0.4,3.4c0.3,1,0.8,2,1.5,2.8c0.8,0.9,1.6,1.5,2.7,1.9c1,0.4,2.1,0.6,3.2,0.6c1.6,0,3-0.4,4.2-1.3
			c1.3-0.8,2.2-2.1,2.9-3.8c0.7-1.7,1-3.5,1-5.4s-0.4-3.6-1.1-5.1c-0.7-1.4-1.7-2.5-2.9-3.1c-1.2-0.6-2.6-1-4.1-1
			C166.6,618.2,164.2,618.6,161.6,619.6z"/>
		<path class="st1" d="M198.9,636.4c-0.1,0.5-0.2,1-0.2,1.6c-1.2,0.3-2.2,0.6-3.1,0.7s-1.9,0.2-2.8,0.2c-1.7,0-3.1-0.2-4.4-0.7
			c-1.3-0.5-2.4-1.2-3.3-2.2s-1.6-2.2-2-3.5c-0.4-1.3-0.6-2.7-0.6-4.2c0-1.9,0.3-3.7,1-5.4c0.7-1.7,1.8-3.1,3.3-4.2
			c1.5-1.1,3.4-1.7,5.7-1.7c1.6,0,3,0.3,4.2,0.9c1.3,0.6,2.2,1.5,2.9,2.8s1.1,2.9,1.1,4.6c0,0.3,0,0.7,0,1l-16.5,0
			c-0.1,0.9-0.1,1.6-0.1,2c0,1.3,0.2,2.6,0.6,3.8c0.4,1.2,1,2.3,1.8,3.1s1.7,1.4,2.8,1.8c1.1,0.4,2.3,0.6,3.5,0.6
			C194.6,637.7,196.6,637.3,198.9,636.4z M184.3,625.2l14.8,0c0-1-0.1-1.7-0.2-2.2s-0.3-1-0.5-1.6c-0.3-0.5-0.6-1-0.9-1.4
			s-0.8-0.7-1.3-1c-0.5-0.3-1-0.5-1.7-0.6c-0.6-0.1-1.3-0.2-1.9-0.2c-0.7,0-1.5,0.1-2.2,0.3c-0.7,0.2-1.4,0.4-1.9,0.7
			c-0.6,0.3-1.1,0.7-1.6,1.1c-0.5,0.5-0.9,0.9-1.3,1.5s-0.6,1-0.8,1.5C184.7,623.7,184.5,624.3,184.3,625.2z"/>
		<path class="st1" d="M219.1,636.8c-0.1,0.6-0.2,1.1-0.3,1.6c-1.8,0.3-3.4,0.5-4.9,0.5c-1.4,0-2.8-0.2-4-0.6
			c-1.3-0.4-2.3-1-3.2-1.9s-1.6-2-2-3.4s-0.7-2.8-0.7-4.3c0-2,0.3-4,1-5.8c0.7-1.8,1.8-3.3,3.3-4.3c1.5-1.1,3.5-1.6,6.1-1.6
			c1.9,0,3.7,0.3,5.4,0.8c0,0.5,0.1,0.9,0.1,1.5c-1.4-0.4-2.6-0.7-3.4-0.9s-1.6-0.2-2.2-0.2c-1.5,0-2.7,0.3-3.9,0.8
			c-1.1,0.6-2.1,1.4-2.8,2.4c-0.7,1-1.3,2.2-1.6,3.4s-0.5,2.5-0.5,3.8c0,1.4,0.2,2.7,0.5,3.8c0.3,1.2,0.9,2.2,1.7,2.9
			s1.7,1.3,2.8,1.7c1.1,0.4,2.3,0.6,3.5,0.6c0.7,0,1.4-0.1,2.2-0.2C216.9,637.4,217.9,637.1,219.1,636.8z"/>
		<path class="st1" d="M224.3,638.5c0.2-2.1,0.3-5.7,0.5-10.9c0.2-5.2,0.3-8.6,0.3-10.1c0.4,0,0.6,0,0.8,0c0.2,0,0.5,0,0.8,0
			c-0.2,2.6-0.4,6.2-0.6,10.8s-0.3,8-0.3,10.2c-0.4,0-0.6,0-0.8,0C225,638.4,224.7,638.4,224.3,638.5z M225.1,612.1l0.1-2.1
			c0.3,0,0.7,0,1.1,0s0.7,0,1.1,0l-0.1,2.1c-0.3,0-0.7,0-1.1,0S225.4,612.1,225.1,612.1z"/>
		<path class="st1" d="M233.3,619.6c0.1-0.5,0.2-1,0.2-1.6c1.4-0.4,2.6-0.7,3.7-0.8c1-0.1,2.1-0.2,3.2-0.2c1.2,0,2.4,0.1,3.4,0.3
			c1.1,0.2,1.9,0.6,2.6,1.1c0.7,0.5,1.1,1.1,1.3,1.7c0.2,0.7,0.3,1.3,0.3,2c0,0.7,0,1.6-0.1,2.6c0,1.1-0.1,2.2-0.2,3.4
			c-0.1,1.2-0.2,2.7-0.2,4.6c-0.1,1.8-0.1,3.1-0.1,3.9v1.7c-0.4,0-0.7,0-0.9,0c-0.2,0-0.5,0-0.9,0c0.2-2.1,0.3-3.8,0.4-5.2
			c0.1-1.3,0.1-2.7,0.2-4.3s0.1-2.9,0.2-4.3c-0.4,0.4-0.8,0.6-1,0.8s-0.5,0.3-0.7,0.5s-0.6,0.3-1,0.4s-0.7,0.3-1.1,0.4
			c-0.3,0.1-1.1,0.3-2.3,0.7c-1.2,0.3-2.1,0.6-2.6,0.7c-1.2,0.4-2.1,0.8-2.8,1.1c-0.7,0.4-1.3,0.8-1.8,1.2c-0.4,0.4-0.7,0.8-0.9,1.3
			c-0.2,0.5-0.3,1.1-0.3,1.7c0,0.9,0.3,1.7,0.8,2.3s1.2,1.1,2.1,1.4c0.8,0.3,1.8,0.4,3,0.4c0.6,0,1.1,0,1.7-0.1
			c0.5-0.1,1.1-0.1,1.5-0.3c0.5-0.1,1.2-0.3,2.1-0.6c-0.1,0.5-0.2,1.1-0.3,1.6c-1.1,0.2-2,0.4-2.7,0.4c-0.7,0.1-1.4,0.1-2,0.1
			c-1.2,0-2.2-0.1-3.2-0.3c-1-0.2-1.8-0.5-2.5-1.1c-0.7-0.5-1.2-1.1-1.5-1.8c-0.3-0.7-0.5-1.4-0.5-2.2c0-0.6,0.1-1.1,0.3-1.7
			s0.5-1.1,0.9-1.6c0.3-0.4,0.8-0.8,1.3-1.2c0.7-0.4,1.4-0.8,2.2-1.1c0.9-0.4,1.9-0.7,3-1c0.3-0.1,1.4-0.4,3.4-0.9
			c0.9-0.2,1.8-0.5,2.6-0.9s1.4-0.8,1.9-1.5c0.4-0.6,0.7-1.3,0.7-1.9c0-0.5-0.1-0.9-0.3-1.4c-0.2-0.4-0.6-0.9-1.1-1.2
			c-0.5-0.4-1.2-0.7-2-0.8s-1.6-0.2-2.5-0.2c-1,0-2,0.1-2.9,0.2c-0.9,0.1-1.6,0.3-2.2,0.5S234.2,619.3,233.3,619.6z"/>
		<path class="st1" d="M253.4,638.5c0.6-11.6,1-21,1.1-28.4c0.4,0,0.6,0,0.9,0c0.2,0,0.5,0,0.9,0l-0.5,10.1l-0.6,18.3
			c-0.4,0-0.6,0-0.9,0C254,638.4,253.7,638.4,253.4,638.5z"/>
		<path class="st1" d="M261.5,638.5c0.2-2.1,0.3-5.7,0.5-10.9c0.2-5.2,0.3-8.6,0.3-10.1c0.4,0,0.6,0,0.8,0c0.2,0,0.5,0,0.8,0
			c-0.2,2.6-0.4,6.2-0.6,10.8s-0.3,8-0.3,10.2c-0.4,0-0.6,0-0.8,0C262.1,638.4,261.9,638.4,261.5,638.5z M262.3,612.1l0.1-2.1
			c0.3,0,0.7,0,1.1,0s0.7,0,1.1,0l-0.1,2.1c-0.3,0-0.7,0-1.1,0S262.6,612.1,262.3,612.1z"/>
		<path class="st1" d="M267.5,638.5c0-0.6,0.1-1.2,0.1-1.8l2.6-3.3l9.9-13c0.3-0.4,0.7-0.9,1.3-1.7c-1.6,0-3.1-0.1-4.4-0.1
			c-2.7,0-5.3,0.1-7.9,0.2c0-0.5,0.1-1,0.1-1.4c2.3,0,4.7,0,7,0l6.6,0c0,0.4-0.1,0.9-0.1,1.6v0.2l-13.7,18c1.3,0.1,2.7,0.1,4.2,0.1
			c3.6,0,6.5-0.1,8.7-0.3c-0.1,0.6-0.1,1-0.1,1.4c-2.2,0-4.5,0-6.7,0H269L267.5,638.5z"/>
		<path class="st1" d="M286.9,638.5c0.2-2.1,0.3-5.7,0.5-10.9c0.2-5.2,0.3-8.6,0.3-10.1c0.4,0,0.6,0,0.8,0c0.2,0,0.5,0,0.8,0
			c-0.2,2.6-0.4,6.2-0.6,10.8s-0.3,8-0.3,10.2c-0.4,0-0.6,0-0.8,0C287.5,638.4,287.3,638.4,286.9,638.5z M287.7,612.1l0.1-2.1
			c0.3,0,0.7,0,1.1,0s0.7,0,1.1,0l-0.1,2.1c-0.3,0-0.7,0-1.1,0S288,612.1,287.7,612.1z"/>
		<path class="st1" d="M294.6,638.5l0.7-12.7l0.2-6c0-1.1,0-1.8,0-2.3c0.4,0,0.6,0,0.8,0c0.2,0,0.4,0,0.8,0l-0.3,4.7
			c0.3-0.7,0.6-1.1,0.8-1.5c0.2-0.3,0.5-0.7,0.8-1.1c0.3-0.4,0.8-0.8,1.2-1.1c0.5-0.3,1.1-0.6,1.7-0.9c0.7-0.2,1.4-0.4,2.1-0.5
			c0.7-0.1,1.4-0.2,2.1-0.2c1.2,0,2.3,0.1,3.4,0.4c1.1,0.3,2,0.7,2.7,1.4s1.2,1.4,1.5,2.2s0.4,1.7,0.4,2.7c0,0.4,0,1.1-0.1,1.9
			l-0.4,9.5l-0.1,3.4c-0.3,0-0.5,0-0.8,0s-0.5,0-0.8,0c0.1-1.7,0.2-3.4,0.3-5l0.3-5.3c0.1-2,0.2-3.4,0.2-4.3c0-0.9-0.1-1.7-0.4-2.5
			c-0.3-0.7-0.7-1.3-1.4-1.8c-0.6-0.5-1.4-0.8-2.3-1c-0.9-0.2-1.8-0.3-2.7-0.3c-1.3,0-2.5,0.2-3.5,0.5c-1,0.3-1.8,0.9-2.5,1.5
			c-0.7,0.7-1.3,1.5-1.8,2.5c-0.3,0.8-0.6,1.8-0.8,3.1c-0.2,1.2-0.3,3.1-0.4,5.7c-0.1,2.6-0.2,4.9-0.2,6.7c-0.4,0-0.6,0-0.8,0
			C295.2,638.4,294.9,638.4,294.6,638.5z"/>
		<path class="st1" d="M320.1,646.1c1.8,0.5,3.3,0.9,4.5,1.1c1.2,0.2,2.3,0.3,3.3,0.3c1.2,0,2.3-0.2,3.3-0.5
			c0.9-0.3,1.7-0.6,2.4-1.1c0.6-0.4,1-0.9,1.4-1.4c0.4-0.6,0.7-1.4,0.8-2.3c0.2-0.9,0.3-1.9,0.3-3c0.1-1.7,0.2-3.7,0.2-5.8
			c-0.3,0.7-0.5,1.2-0.7,1.6s-0.5,0.8-0.8,1.2c-0.4,0.4-0.8,0.8-1.3,1.1s-1,0.6-1.6,0.9c-0.6,0.3-1.3,0.5-2.1,0.6
			c-0.8,0.2-1.5,0.2-2.3,0.2c-1.3,0-2.5-0.2-3.6-0.5c-1.1-0.3-2.1-0.9-3-1.7c-0.9-0.8-1.5-1.8-2-3s-0.7-2.5-0.7-3.9
			c0-1.9,0.3-3.7,1-5.4c0.7-1.7,1.6-3.1,2.8-4.3c1.2-1.1,2.6-1.9,4.3-2.4c1.6-0.5,3.4-0.7,5.2-0.7c1.9,0,4.2,0.2,6.9,0.7l-0.2,2.4
			c0,0.5-0.1,1.1-0.1,1.8l-0.5,9.5l-0.2,8.7c-0.1,1-0.2,2-0.4,2.8c-0.2,0.9-0.6,1.6-1.1,2.3c-0.5,0.7-1.1,1.3-1.8,1.7
			c-0.7,0.5-1.7,0.8-2.8,1.1c-1.2,0.3-2.6,0.5-4.1,0.5c-1.1,0-2.2-0.1-3.3-0.2c-1.1-0.1-2.3-0.3-3.7-0.7
			C320.2,647.1,320.2,646.6,320.1,646.1z M336.9,618.7c-1.3-0.3-2.4-0.4-3.2-0.5c-0.8-0.1-1.5-0.1-2.1-0.1c-1.6,0-3.1,0.2-4.4,0.5
			c-1.4,0.4-2.6,1-3.7,2c-1.1,1-2,2.3-2.6,3.9c-0.6,1.6-0.9,3.2-0.9,4.9c0,1.6,0.3,3.1,0.9,4.4c0.6,1.3,1.5,2.3,2.7,2.9
			c1.2,0.7,2.6,1,4,1c1,0,1.9-0.1,2.8-0.3c0.7-0.2,1.3-0.4,1.9-0.8c0.6-0.4,1.2-0.9,1.7-1.5c0.5-0.6,1-1.3,1.4-2.2
			c0.4-0.8,0.7-1.7,0.9-2.5c0.2-1.2,0.4-2.8,0.5-4.6L336.9,618.7z"/>
		<path class="st1" d="M354.8,638.5l0.5-8.3l0.4-12.5l0.1-4.3c0-1.2,0-2.2,0-3.2c0.4,0,0.7,0,0.9,0c0.3,0,0.6,0,0.9,0l-0.4,7.5
			l-0.5,15.5l-0.1,5.4c-0.3,0-0.7,0-0.9,0C355.5,638.4,355.1,638.4,354.8,638.5z"/>
		<path class="st1" d="M363.1,638.5l0.7-12.7l0.2-6c0-1.1,0-1.8,0-2.3c0.4,0,0.6,0,0.8,0c0.2,0,0.4,0,0.8,0l-0.3,4.7
			c0.3-0.7,0.6-1.1,0.8-1.5c0.2-0.3,0.5-0.7,0.8-1.1c0.3-0.4,0.8-0.8,1.2-1.1c0.5-0.3,1.1-0.6,1.7-0.9c0.7-0.2,1.4-0.4,2.1-0.5
			c0.7-0.1,1.4-0.2,2.1-0.2c1.2,0,2.3,0.1,3.4,0.4c1.1,0.3,2,0.7,2.7,1.4s1.2,1.4,1.5,2.2s0.4,1.7,0.4,2.7c0,0.4,0,1.1-0.1,1.9
			l-0.4,9.5l-0.1,3.4c-0.3,0-0.5,0-0.8,0s-0.5,0-0.8,0c0.1-1.7,0.2-3.4,0.3-5l0.3-5.3c0.1-2,0.2-3.4,0.2-4.3c0-0.9-0.1-1.7-0.4-2.5
			c-0.3-0.7-0.7-1.3-1.4-1.8c-0.6-0.5-1.4-0.8-2.3-1c-0.9-0.2-1.8-0.3-2.7-0.3c-1.3,0-2.5,0.2-3.5,0.5c-1,0.3-1.8,0.9-2.5,1.5
			c-0.7,0.7-1.3,1.5-1.8,2.5c-0.3,0.8-0.6,1.8-0.8,3.1c-0.2,1.2-0.3,3.1-0.4,5.7c-0.1,2.6-0.2,4.9-0.2,6.7c-0.4,0-0.6,0-0.8,0
			C363.7,638.4,363.4,638.4,363.1,638.5z"/>
		<path class="st1" d="M398.6,638.5c0.2-2.4,0.4-5.2,0.5-8.6l0.4-10.4c0.1-3.6,0.2-6.7,0.2-9.5l4.1,0l4.6,0c1.3,0,2.4,0.1,3.3,0.2
			c0.8,0.2,1.6,0.5,2.3,1.1s1.2,1.3,1.6,2.2c0.4,0.9,0.5,1.8,0.5,2.7c0,1.7-0.4,3.2-1.3,4.5c-0.9,1.3-2.1,2.3-3.6,3
			c-1.5,0.7-3.2,1-5.1,1c-1.1,0-2.2-0.1-3.5-0.4c-0.1-0.4-0.2-0.8-0.4-1.3c1.3,0.3,2.5,0.4,3.7,0.4c1.2,0,2.3-0.1,3.4-0.4
			s2-0.7,2.8-1.4s1.4-1.4,1.8-2.4c0.4-1,0.6-2,0.6-3c0-0.7-0.1-1.4-0.4-2.1c-0.3-0.7-0.6-1.2-1.1-1.6s-1-0.7-1.7-1
			c-0.7-0.2-1.8-0.3-3.5-0.3h-3.6l-1.7,0l-1.2,0c-0.2,3.3-0.4,8-0.6,14.2c-0.2,6.1-0.3,9.7-0.3,10.8l0,2.2c-0.4,0-0.7,0-1,0
			C399.3,638.4,399,638.4,398.6,638.5z"/>
		<path class="st1" d="M419.4,638.5c0.2-2.9,0.3-6.4,0.5-10.3c0.2-4,0.2-6.9,0.2-8.8l0-1.9c0.3,0,0.5,0,0.8,0c0.3,0,0.5,0,0.8,0
			l-0.2,3.9c0.5-0.9,0.9-1.7,1.3-2.1c0.4-0.5,0.9-0.9,1.4-1.2c0.5-0.3,1.2-0.6,1.9-0.7s1.5-0.3,2.2-0.3c0.6,0,1.1,0.1,1.7,0.2
			c0,0.5,0,0.9,0.1,1.4c-0.9-0.2-1.7-0.4-2.4-0.4c-0.7,0-1.3,0.1-1.8,0.3c-0.5,0.2-1,0.4-1.5,0.8c-0.5,0.3-0.9,0.8-1.4,1.4
			c-0.4,0.6-0.8,1.2-1,1.9c-0.3,0.8-0.5,1.8-0.6,2.9c-0.1,1.8-0.2,3.8-0.3,6.1c-0.1,3.1-0.1,5.3-0.1,6.8c-0.4,0-0.6,0-0.8,0
			S419.8,638.4,419.4,638.5z"/>
		<path class="st1" d="M448.7,636.4c-0.1,0.5-0.2,1-0.2,1.6c-1.2,0.3-2.2,0.6-3.1,0.7s-1.9,0.2-2.8,0.2c-1.7,0-3.1-0.2-4.4-0.7
			c-1.3-0.5-2.4-1.2-3.3-2.2s-1.6-2.2-2-3.5c-0.4-1.3-0.6-2.7-0.6-4.2c0-1.9,0.3-3.7,1-5.4c0.7-1.7,1.8-3.1,3.3-4.2
			c1.5-1.1,3.4-1.7,5.7-1.7c1.6,0,3,0.3,4.2,0.9c1.3,0.6,2.2,1.5,2.9,2.8s1.1,2.9,1.1,4.6c0,0.3,0,0.7,0,1l-16.5,0
			c-0.1,0.9-0.1,1.6-0.1,2c0,1.3,0.2,2.6,0.6,3.8c0.4,1.2,1,2.3,1.8,3.1s1.7,1.4,2.8,1.8c1.1,0.4,2.3,0.6,3.5,0.6
			C444.3,637.7,446.4,637.3,448.7,636.4z M434.1,625.2l14.8,0c0-1-0.1-1.7-0.2-2.2s-0.3-1-0.5-1.6c-0.3-0.5-0.6-1-0.9-1.4
			s-0.8-0.7-1.3-1c-0.5-0.3-1-0.5-1.7-0.6c-0.6-0.1-1.3-0.2-1.9-0.2c-0.7,0-1.5,0.1-2.2,0.3c-0.7,0.2-1.4,0.4-1.9,0.7
			c-0.6,0.3-1.1,0.7-1.6,1.1c-0.5,0.5-0.9,0.9-1.3,1.5s-0.6,1-0.8,1.5C434.5,623.7,434.3,624.3,434.1,625.2z"/>
		<path class="st1" d="M468.9,636.8c-0.1,0.6-0.2,1.1-0.3,1.6c-1.8,0.3-3.4,0.5-4.9,0.5c-1.4,0-2.8-0.2-4-0.6
			c-1.3-0.4-2.3-1-3.2-1.9s-1.6-2-2-3.4s-0.7-2.8-0.7-4.3c0-2,0.3-4,1-5.8c0.7-1.8,1.8-3.3,3.3-4.3c1.5-1.1,3.5-1.6,6.1-1.6
			c1.9,0,3.7,0.3,5.4,0.8c0,0.5,0.1,0.9,0.1,1.5c-1.4-0.4-2.6-0.7-3.4-0.9s-1.6-0.2-2.2-0.2c-1.5,0-2.7,0.3-3.9,0.8
			c-1.1,0.6-2.1,1.4-2.8,2.4c-0.7,1-1.3,2.2-1.6,3.4s-0.5,2.5-0.5,3.8c0,1.4,0.2,2.7,0.5,3.8c0.3,1.2,0.9,2.2,1.7,2.9
			s1.7,1.3,2.8,1.7c1.1,0.4,2.3,0.6,3.5,0.6c0.7,0,1.4-0.1,2.2-0.2C466.7,637.4,467.7,637.1,468.9,636.8z"/>
		<path class="st1" d="M474.1,638.5c0.2-2.1,0.3-5.7,0.5-10.9c0.2-5.2,0.3-8.6,0.3-10.1c0.4,0,0.6,0,0.8,0c0.2,0,0.5,0,0.8,0
			c-0.2,2.6-0.4,6.2-0.6,10.8s-0.3,8-0.3,10.2c-0.4,0-0.6,0-0.8,0C474.7,638.4,474.5,638.4,474.1,638.5z M474.9,612.1l0.1-2.1
			c0.3,0,0.7,0,1.1,0s0.7,0,1.1,0l-0.1,2.1c-0.3,0-0.7,0-1.1,0S475.2,612.1,474.9,612.1z"/>
		<path class="st1" d="M480.5,638c0-0.7-0.1-1.3-0.2-1.8c1.1,0.5,2.1,0.8,3.1,1c1,0.2,1.9,0.3,2.7,0.3c1.1,0,2-0.2,2.7-0.5
			c0.8-0.3,1.3-0.8,1.7-1.4c0.4-0.6,0.6-1.2,0.6-1.9c0-0.3,0-0.6-0.1-0.8s-0.2-0.5-0.3-0.8c-0.1-0.3-0.3-0.5-0.5-0.7
			c-0.2-0.2-0.4-0.5-0.7-0.8c-0.3-0.3-0.7-0.6-1.1-1c-0.4-0.4-1.1-0.9-2-1.6c-0.9-0.7-1.6-1.4-2.2-1.9c-0.6-0.5-1.1-1.1-1.4-1.6
			s-0.7-1.1-0.8-1.5s-0.2-0.9-0.2-1.4c0-0.8,0.3-1.6,0.8-2.3c0.5-0.8,1.2-1.3,2.2-1.7s2.2-0.6,3.6-0.6c1.2,0,2.6,0.2,4.1,0.5
			c0,0.6,0.1,1.2,0.1,1.8c-0.9-0.4-1.7-0.6-2.4-0.8c-0.7-0.1-1.4-0.2-2.1-0.2c-0.9,0-1.7,0.1-2.5,0.4c-0.8,0.3-1.3,0.7-1.7,1.2
			c-0.4,0.5-0.6,1.1-0.6,1.7c0,0.3,0,0.6,0.1,0.9c0.1,0.3,0.2,0.6,0.4,0.9c0.2,0.3,0.4,0.6,0.7,0.9c0.3,0.3,0.7,0.7,1.1,1.1
			c0.5,0.4,1.1,1,2,1.7s1.5,1.3,1.9,1.6c0.4,0.4,0.8,0.7,1.1,1s0.6,0.6,0.9,1c0.3,0.4,0.5,0.7,0.7,1.1c0.2,0.3,0.3,0.7,0.4,1.1
			c0.1,0.4,0.1,0.7,0.1,1.1c0,0.9-0.3,1.7-0.8,2.5c-0.5,0.8-1.3,1.4-2.2,1.8s-2.2,0.7-3.5,0.7c-0.5,0-1.2,0-1.9-0.1
			c-0.8-0.1-1.4-0.2-1.9-0.3C481.8,638.4,481.2,638.2,480.5,638z"/>
		<path class="st1" d="M497.4,638.5c0.2-2.1,0.3-5.7,0.5-10.9c0.2-5.2,0.3-8.6,0.3-10.1c0.4,0,0.6,0,0.8,0c0.2,0,0.5,0,0.8,0
			c-0.2,2.6-0.4,6.2-0.6,10.8s-0.3,8-0.3,10.2c-0.4,0-0.6,0-0.8,0C498,638.4,497.7,638.4,497.4,638.5z M498.1,612.1l0.1-2.1
			c0.3,0,0.7,0,1.1,0s0.7,0,1.1,0l-0.1,2.1c-0.3,0-0.7,0-1.1,0S498.5,612.1,498.1,612.1z"/>
		<path class="st1" d="M514.8,617c1.3,0,2.5,0.2,3.7,0.5c1.2,0.4,2.3,1,3.2,1.8c0.9,0.9,1.6,2,2.1,3.4c0.5,1.4,0.7,2.9,0.7,4.5
			c0,1.7-0.3,3.3-0.8,4.9c-0.5,1.6-1.2,2.9-2.2,3.9c-0.9,1-2.1,1.8-3.3,2.2c-1.3,0.4-2.6,0.6-4,0.6c-1,0-2-0.1-2.9-0.3
			c-1-0.2-1.9-0.6-2.7-1.2c-0.8-0.5-1.6-1.2-2.2-2.1c-0.6-0.9-1.1-1.9-1.4-3.1c-0.3-1.2-0.5-2.4-0.5-3.7c0-2.2,0.4-4.3,1.2-6.1
			c0.8-1.9,2.1-3.2,3.7-4.1C511.1,617.4,512.9,617,514.8,617z M514.8,618.2c-1.7,0-3.2,0.4-4.6,1.2c-1.4,0.8-2.5,2-3.1,3.7
			c-0.7,1.6-1,3.5-1,5.4c0,1.4,0.2,2.7,0.6,3.9c0.4,1.2,1,2.3,1.8,3.1c0.8,0.8,1.8,1.4,2.7,1.7c1,0.3,2,0.5,3.1,0.5
			c1.2,0,2.4-0.2,3.5-0.6c1.1-0.4,2-1.1,2.9-2c0.8-0.9,1.4-2.1,1.8-3.5c0.4-1.4,0.6-2.8,0.6-4.4c0-1.4-0.2-2.8-0.6-4s-1-2.3-1.8-3
			c-0.8-0.8-1.7-1.3-2.7-1.6C516.9,618.3,515.8,618.2,514.8,618.2z"/>
		<path class="st1" d="M529,638.5l0.7-12.7l0.2-6c0-1.1,0-1.8,0-2.3c0.4,0,0.6,0,0.8,0c0.2,0,0.4,0,0.8,0l-0.3,4.7
			c0.3-0.7,0.6-1.1,0.8-1.5c0.2-0.3,0.5-0.7,0.8-1.1c0.3-0.4,0.8-0.8,1.2-1.1c0.5-0.3,1.1-0.6,1.7-0.9c0.7-0.2,1.4-0.4,2.1-0.5
			c0.7-0.1,1.4-0.2,2.1-0.2c1.2,0,2.3,0.1,3.4,0.4c1.1,0.3,2,0.7,2.7,1.4c0.7,0.6,1.2,1.4,1.5,2.2s0.4,1.7,0.4,2.7
			c0,0.4,0,1.1-0.1,1.9l-0.4,9.5l-0.1,3.4c-0.3,0-0.5,0-0.8,0c-0.3,0-0.5,0-0.8,0c0.1-1.7,0.2-3.4,0.3-5l0.3-5.3
			c0.1-2,0.2-3.4,0.2-4.3c0-0.9-0.1-1.7-0.4-2.5c-0.3-0.7-0.7-1.3-1.4-1.8c-0.6-0.5-1.4-0.8-2.3-1c-0.9-0.2-1.8-0.3-2.7-0.3
			c-1.3,0-2.5,0.2-3.5,0.5c-1,0.3-1.8,0.9-2.5,1.5c-0.7,0.7-1.3,1.5-1.8,2.5c-0.3,0.8-0.6,1.8-0.8,3.1c-0.2,1.2-0.3,3.1-0.4,5.7
			s-0.2,4.9-0.2,6.7c-0.4,0-0.6,0-0.8,0S529.4,638.4,529,638.5z"/>
		<path class="st1" d="M564.6,638.5l0.4-7.2l0.4-13.9l0.1-4.1c0-1,0-2,0-3.1c2.9,0,5.7,0,8.3,0l7.2,0c-0.1,0.6-0.1,1-0.1,1.5
			c-1.2-0.1-2.5-0.2-4-0.2c-1.5,0-2.8,0-4.1,0h-5.7l-0.4,12l4.4,0.1c3.8,0,6.6,0,8.4-0.1c-0.1,0.4-0.1,0.9-0.1,1.4l-3.7,0
			c-1.5,0-2.6,0-3.5,0c-1.8,0-3.7,0-5.7,0.1c-0.2,6-0.3,10.5-0.3,13.7c-0.3,0-0.7,0-0.9,0C565.2,638.4,564.9,638.4,564.6,638.5z"/>
		<path class="st1" d="M586.5,619.6c0.1-0.5,0.2-1,0.2-1.6c1.4-0.4,2.6-0.7,3.7-0.8c1-0.1,2.1-0.2,3.2-0.2c1.2,0,2.4,0.1,3.4,0.3
			s1.9,0.6,2.6,1.1c0.7,0.5,1.1,1.1,1.3,1.7c0.2,0.7,0.3,1.3,0.3,2c0,0.7,0,1.6-0.1,2.6c0,1.1-0.1,2.2-0.2,3.4
			c-0.1,1.2-0.2,2.7-0.2,4.6c-0.1,1.8-0.1,3.1-0.1,3.9v1.7c-0.4,0-0.7,0-0.9,0c-0.2,0-0.5,0-0.9,0c0.2-2.1,0.3-3.8,0.4-5.2
			c0.1-1.3,0.1-2.7,0.2-4.3s0.1-2.9,0.2-4.3c-0.4,0.4-0.8,0.6-1,0.8c-0.2,0.2-0.5,0.3-0.8,0.5c-0.3,0.1-0.6,0.3-1,0.4
			c-0.4,0.1-0.7,0.3-1.1,0.4c-0.3,0.1-1.1,0.3-2.3,0.7c-1.2,0.3-2.1,0.6-2.6,0.7c-1.2,0.4-2.1,0.8-2.8,1.1c-0.7,0.4-1.3,0.8-1.8,1.2
			c-0.4,0.4-0.7,0.8-0.9,1.3c-0.2,0.5-0.3,1.1-0.3,1.7c0,0.9,0.3,1.7,0.8,2.3c0.5,0.7,1.2,1.1,2.1,1.4c0.8,0.3,1.8,0.4,3,0.4
			c0.6,0,1.1,0,1.7-0.1s1.1-0.1,1.5-0.3c0.5-0.1,1.2-0.3,2.1-0.6c-0.1,0.5-0.2,1.1-0.3,1.6c-1.1,0.2-2,0.4-2.7,0.4
			c-0.7,0.1-1.4,0.1-2,0.1c-1.2,0-2.2-0.1-3.2-0.3c-1-0.2-1.8-0.5-2.5-1.1c-0.7-0.5-1.2-1.1-1.5-1.8c-0.3-0.7-0.5-1.4-0.5-2.2
			c0-0.6,0.1-1.1,0.3-1.7c0.2-0.5,0.5-1.1,0.9-1.6c0.3-0.4,0.8-0.8,1.3-1.2c0.7-0.4,1.4-0.8,2.2-1.1c0.9-0.4,1.9-0.7,3-1
			c0.3-0.1,1.4-0.4,3.4-0.9c0.9-0.2,1.8-0.5,2.6-0.9s1.4-0.8,1.9-1.5c0.4-0.6,0.7-1.3,0.7-1.9c0-0.5-0.1-0.9-0.3-1.4
			c-0.2-0.4-0.6-0.9-1.1-1.2c-0.5-0.4-1.2-0.7-2-0.8c-0.8-0.2-1.6-0.2-2.5-0.2c-1,0-2,0.1-2.9,0.2s-1.6,0.3-2.2,0.5
			C588.2,619,587.4,619.3,586.5,619.6z"/>
		<path class="st1" d="M605.2,638c0-0.7-0.1-1.3-0.2-1.8c1.1,0.5,2.1,0.8,3.1,1c1,0.2,1.9,0.3,2.7,0.3c1.1,0,2-0.2,2.7-0.5
			c0.8-0.3,1.3-0.8,1.7-1.4s0.6-1.2,0.6-1.9c0-0.3,0-0.6-0.1-0.8s-0.2-0.5-0.3-0.8s-0.3-0.5-0.5-0.7c-0.2-0.2-0.4-0.5-0.7-0.8
			c-0.3-0.3-0.7-0.6-1.1-1c-0.4-0.4-1.1-0.9-2-1.6c-0.9-0.7-1.6-1.4-2.2-1.9c-0.6-0.5-1.1-1.1-1.4-1.6c-0.4-0.5-0.7-1.1-0.8-1.5
			s-0.2-0.9-0.2-1.4c0-0.8,0.3-1.6,0.8-2.3c0.5-0.8,1.2-1.3,2.2-1.7c1-0.4,2.2-0.6,3.6-0.6c1.2,0,2.6,0.2,4.1,0.5
			c0,0.6,0.1,1.2,0.1,1.8c-0.9-0.4-1.7-0.6-2.4-0.8s-1.4-0.2-2.1-0.2c-0.9,0-1.7,0.1-2.5,0.4c-0.8,0.3-1.3,0.7-1.7,1.2
			c-0.4,0.5-0.6,1.1-0.6,1.7c0,0.3,0,0.6,0.1,0.9c0.1,0.3,0.2,0.6,0.4,0.9c0.2,0.3,0.4,0.6,0.7,0.9c0.3,0.3,0.7,0.7,1.1,1.1
			s1.1,1,2,1.7s1.5,1.3,1.9,1.6c0.4,0.4,0.8,0.7,1.1,1s0.6,0.6,0.9,1c0.3,0.4,0.5,0.7,0.7,1.1c0.2,0.3,0.3,0.7,0.4,1.1
			c0.1,0.4,0.1,0.7,0.1,1.1c0,0.9-0.3,1.7-0.8,2.5c-0.5,0.8-1.3,1.4-2.2,1.8s-2.2,0.7-3.5,0.7c-0.5,0-1.2,0-1.9-0.1
			c-0.8-0.1-1.4-0.2-1.9-0.3S605.9,638.2,605.2,638z"/>
		<path class="st1" d="M630.4,637.1c-0.1,0.4-0.2,0.9-0.3,1.3c-1.1,0.3-2.2,0.4-3.1,0.4c-0.8,0-1.5-0.1-2.1-0.3
			c-0.6-0.2-1.1-0.5-1.5-0.9s-0.6-1-0.8-1.5c-0.1-0.5-0.2-1.1-0.2-1.8c0-0.1,0-0.3,0-0.5c0-0.2,0-0.8,0.1-1.6l0.7-13.8h-2.6
			c0.1-0.4,0.1-0.7,0.1-1.1h2.5c0.1-0.9,0.1-2.2,0.2-3.9c0.5-0.1,1-0.2,1.4-0.3c-0.1,2.2-0.1,3.6-0.1,4.2h6.2
			c-0.1,0.4-0.1,0.8-0.1,1.1h-6.2l-0.7,14.3l0,0.9c0,1.2,0.1,2,0.4,2.5c0.3,0.5,0.7,0.9,1.1,1.1c0.5,0.2,1,0.4,1.5,0.4
			c0.4,0,0.8,0,1.2-0.1C628.6,637.6,629.3,637.4,630.4,637.1z"/>
		<path class="st1" d="M649.4,636.4c-0.1,0.5-0.2,1-0.3,1.6c-1.2,0.3-2.2,0.6-3.1,0.7s-1.9,0.2-2.8,0.2c-1.7,0-3.1-0.2-4.4-0.7
			c-1.3-0.5-2.4-1.2-3.3-2.2s-1.6-2.2-2-3.5c-0.4-1.3-0.6-2.7-0.6-4.2c0-1.9,0.3-3.7,1-5.4s1.8-3.1,3.3-4.2c1.5-1.1,3.4-1.7,5.7-1.7
			c1.6,0,3,0.3,4.2,0.9c1.3,0.6,2.2,1.5,2.9,2.8c0.7,1.3,1.1,2.9,1.1,4.6c0,0.3,0,0.7,0,1l-16.5,0c-0.1,0.9-0.1,1.6-0.1,2
			c0,1.3,0.2,2.6,0.6,3.8c0.4,1.2,1,2.3,1.8,3.1s1.7,1.4,2.8,1.8c1.1,0.4,2.3,0.6,3.5,0.6C645,637.7,647.1,637.3,649.4,636.4z
			 M634.8,625.2l14.8,0c0-1-0.1-1.7-0.2-2.2s-0.3-1-0.5-1.6c-0.3-0.5-0.6-1-0.9-1.4c-0.4-0.4-0.8-0.7-1.3-1c-0.5-0.3-1-0.5-1.7-0.6
			s-1.3-0.2-1.9-0.2c-0.7,0-1.5,0.1-2.2,0.3c-0.7,0.2-1.4,0.4-1.9,0.7c-0.6,0.3-1.1,0.7-1.6,1.1c-0.5,0.5-0.9,0.9-1.3,1.5
			c-0.3,0.5-0.6,1-0.8,1.5C635.2,623.7,635,624.3,634.8,625.2z"/>
		<path class="st1" d="M655,638.5l0.7-12.7l0.2-6c0-1.1,0-1.8,0-2.3c0.4,0,0.6,0,0.8,0c0.2,0,0.4,0,0.8,0l-0.3,4.7
			c0.3-0.7,0.6-1.1,0.8-1.5c0.2-0.3,0.5-0.7,0.8-1.1c0.3-0.4,0.8-0.8,1.2-1.1c0.5-0.3,1.1-0.6,1.7-0.9c0.7-0.2,1.4-0.4,2.1-0.5
			c0.7-0.1,1.4-0.2,2.1-0.2c1.2,0,2.3,0.1,3.4,0.4c1.1,0.3,2,0.7,2.7,1.4c0.7,0.6,1.2,1.4,1.5,2.2s0.4,1.7,0.4,2.7
			c0,0.4,0,1.1-0.1,1.9l-0.4,9.5l-0.1,3.4c-0.3,0-0.5,0-0.8,0c-0.3,0-0.5,0-0.8,0c0.1-1.7,0.2-3.4,0.3-5l0.3-5.3
			c0.1-2,0.2-3.4,0.2-4.3c0-0.9-0.1-1.7-0.4-2.5c-0.3-0.7-0.7-1.3-1.4-1.8c-0.6-0.5-1.4-0.8-2.3-1c-0.9-0.2-1.8-0.3-2.7-0.3
			c-1.3,0-2.5,0.2-3.5,0.5c-1,0.3-1.8,0.9-2.5,1.5c-0.7,0.7-1.3,1.5-1.8,2.5c-0.3,0.8-0.6,1.8-0.8,3.1c-0.2,1.2-0.3,3.1-0.4,5.7
			s-0.2,4.9-0.2,6.7c-0.4,0-0.6,0-0.8,0S655.3,638.4,655,638.5z"/>
		<path class="st1" d="M695.1,636.4c-0.1,0.5-0.2,1-0.3,1.6c-1.2,0.3-2.2,0.6-3.1,0.7s-1.9,0.2-2.8,0.2c-1.7,0-3.1-0.2-4.4-0.7
			c-1.3-0.5-2.4-1.2-3.3-2.2s-1.6-2.2-2-3.5c-0.4-1.3-0.6-2.7-0.6-4.2c0-1.9,0.3-3.7,1-5.4s1.8-3.1,3.3-4.2c1.5-1.1,3.4-1.7,5.7-1.7
			c1.6,0,3,0.3,4.2,0.9c1.3,0.6,2.2,1.5,2.9,2.8c0.7,1.3,1.1,2.9,1.1,4.6c0,0.3,0,0.7,0,1l-16.5,0c-0.1,0.9-0.1,1.6-0.1,2
			c0,1.3,0.2,2.6,0.6,3.8c0.4,1.2,1,2.3,1.8,3.1s1.7,1.4,2.8,1.8c1.1,0.4,2.3,0.6,3.5,0.6C690.8,637.7,692.9,637.3,695.1,636.4z
			 M680.6,625.2l14.8,0c0-1-0.1-1.7-0.2-2.2s-0.3-1-0.5-1.6c-0.3-0.5-0.6-1-0.9-1.4c-0.4-0.4-0.8-0.7-1.3-1c-0.5-0.3-1-0.5-1.7-0.6
			s-1.3-0.2-1.9-0.2c-0.7,0-1.5,0.1-2.2,0.3c-0.7,0.2-1.4,0.4-1.9,0.7c-0.6,0.3-1.1,0.7-1.6,1.1c-0.5,0.5-0.9,0.9-1.3,1.5
			c-0.3,0.5-0.6,1-0.8,1.5C681,623.7,680.8,624.3,680.6,625.2z"/>
		<path class="st1" d="M700.8,638.5c0.2-2.9,0.3-6.4,0.5-10.3c0.2-4,0.2-6.9,0.2-8.8l0-1.9c0.3,0,0.5,0,0.8,0c0.3,0,0.5,0,0.8,0
			l-0.2,3.9c0.5-0.9,0.9-1.7,1.3-2.1c0.4-0.5,0.9-0.9,1.4-1.2c0.5-0.3,1.2-0.6,1.9-0.7s1.5-0.3,2.2-0.3c0.6,0,1.1,0.1,1.7,0.2
			c0,0.5,0,0.9,0.1,1.4c-0.9-0.2-1.7-0.4-2.4-0.4c-0.7,0-1.3,0.1-1.8,0.3c-0.5,0.2-1,0.4-1.5,0.8c-0.5,0.3-0.9,0.8-1.4,1.4
			c-0.4,0.6-0.8,1.2-1,1.9c-0.3,0.8-0.5,1.8-0.6,2.9c-0.1,1.8-0.2,3.8-0.3,6.1c-0.1,3.1-0.1,5.3-0.1,6.8c-0.4,0-0.6,0-0.8,0
			S701.1,638.4,700.8,638.5z"/>
		<path class="st1" d="M712.9,638c0-0.7-0.1-1.3-0.2-1.8c1.1,0.5,2.1,0.8,3.1,1c1,0.2,1.9,0.3,2.7,0.3c1.1,0,2-0.2,2.7-0.5
			c0.8-0.3,1.3-0.8,1.7-1.4s0.6-1.2,0.6-1.9c0-0.3,0-0.6-0.1-0.8s-0.2-0.5-0.3-0.8s-0.3-0.5-0.5-0.7c-0.2-0.2-0.4-0.5-0.7-0.8
			c-0.3-0.3-0.7-0.6-1.1-1c-0.4-0.4-1.1-0.9-2-1.6c-0.9-0.7-1.6-1.4-2.2-1.9c-0.6-0.5-1.1-1.1-1.4-1.6c-0.4-0.5-0.7-1.1-0.8-1.5
			s-0.2-0.9-0.2-1.4c0-0.8,0.3-1.6,0.8-2.3c0.5-0.8,1.2-1.3,2.2-1.7c1-0.4,2.2-0.6,3.6-0.6c1.2,0,2.6,0.2,4.1,0.5
			c0,0.6,0.1,1.2,0.1,1.8c-0.9-0.4-1.7-0.6-2.4-0.8s-1.4-0.2-2.1-0.2c-0.9,0-1.7,0.1-2.5,0.4c-0.8,0.3-1.3,0.7-1.7,1.2
			c-0.4,0.5-0.6,1.1-0.6,1.7c0,0.3,0,0.6,0.1,0.9c0.1,0.3,0.2,0.6,0.4,0.9c0.2,0.3,0.4,0.6,0.7,0.9c0.3,0.3,0.7,0.7,1.1,1.1
			s1.1,1,2,1.7s1.5,1.3,1.9,1.6c0.4,0.4,0.8,0.7,1.1,1s0.6,0.6,0.9,1c0.3,0.4,0.5,0.7,0.7,1.1c0.2,0.3,0.3,0.7,0.4,1.1
			c0.1,0.4,0.1,0.7,0.1,1.1c0,0.9-0.3,1.7-0.8,2.5c-0.5,0.8-1.3,1.4-2.2,1.8s-2.2,0.7-3.5,0.7c-0.5,0-1.2,0-1.9-0.1
			c-0.8-0.1-1.4-0.2-1.9-0.3S713.6,638.2,712.9,638z"/>
		<path class="st1" d="M760.3,626.9c0.3,0,0.5,0,0.7,0c0.2,0,0.5,0,0.7,0c0,1.3-0.2,2.6-0.5,3.8c-0.3,1.2-0.8,2.4-1.4,3.4
			c0.9,0.8,1.8,1.6,2.6,2.2c0.8,0.7,1.6,1.4,2.4,2.1c-0.3,0-0.7,0-1.1,0c-0.4,0-0.8,0-1.1,0l-3.6-3.2c-0.5,0.5-0.9,0.9-1.2,1.2
			c-0.4,0.3-0.8,0.6-1.4,0.9c-0.6,0.3-1.2,0.6-1.9,0.8c-0.7,0.2-1.4,0.4-2.3,0.5c-0.8,0.1-1.7,0.2-2.6,0.2c-1.9,0-3.6-0.3-5-0.9
			s-2.5-1.5-3.3-2.6c-0.8-1.1-1.1-2.3-1.1-3.7c0-0.7,0.1-1.4,0.3-2.1c0.2-0.7,0.5-1.4,1-2c0.5-0.7,1.1-1.3,1.8-1.9s2-1.4,3.9-2.5
			c-0.7-0.9-1.1-1.6-1.5-2.2s-0.6-1.1-0.9-1.7c-0.3-0.6-0.4-1.2-0.6-1.7s-0.2-1.1-0.2-1.6c0-0.8,0.2-1.6,0.5-2.4s0.8-1.5,1.5-2.1
			c0.7-0.6,1.5-1.1,2.4-1.4c0.9-0.3,1.9-0.4,2.9-0.4c0.7,0,1.4,0.1,2.1,0.2c0.7,0.1,1.5,0.4,2.3,0.8c0,0.3,0,0.5,0,0.7
			c0,0.2,0,0.5,0,0.8c-1.3-0.9-2.7-1.4-4.3-1.4c-1.1,0-2.2,0.2-3.1,0.7c-0.9,0.4-1.6,1.1-2.1,1.9s-0.7,1.7-0.7,2.6
			c0,0.9,0.2,1.8,0.6,2.7s1.2,2.1,2.3,3.7s2.7,3.4,4.6,5.3s3.8,3.8,5.8,5.5c0.3-0.6,0.5-1,0.6-1.4s0.2-0.7,0.4-1.3
			c0.1-0.5,0.2-1.1,0.3-1.7S760.2,627.7,760.3,626.9z M758,634.4c-3.5-3.1-6.8-6.5-10-10.3c-1.4,0.8-2.5,1.5-3.2,2.1
			s-1.4,1.2-1.9,1.8s-0.8,1.3-1,1.8c-0.2,0.6-0.3,1.2-0.3,1.7c0,1.2,0.3,2.2,1,3.2c0.7,1,1.7,1.7,2.9,2.2c1.3,0.5,2.7,0.8,4.4,0.8
			c0.8,0,1.5-0.1,2.2-0.2s1.4-0.3,2-0.5c0.6-0.2,1.2-0.5,1.6-0.7c0.5-0.3,0.9-0.6,1.2-0.9S757.6,634.8,758,634.4z"/>
		<path class="st1" d="M779.4,638.5c0.2-2.4,0.4-5.2,0.5-8.6l0.4-10.4c0.1-3.6,0.2-6.7,0.2-9.5l4.1,0l4.6,0c1.3,0,2.4,0.1,3.3,0.2
			c0.8,0.2,1.6,0.5,2.3,1.1s1.2,1.3,1.6,2.2c0.4,0.9,0.5,1.8,0.5,2.7c0,1.7-0.4,3.2-1.3,4.5c-0.9,1.3-2.1,2.3-3.6,3
			c-1.5,0.7-3.2,1-5.1,1c-1.1,0-2.2-0.1-3.5-0.4c-0.1-0.4-0.3-0.8-0.4-1.3c1.3,0.3,2.5,0.4,3.7,0.4c1.2,0,2.3-0.1,3.4-0.4
			c1.1-0.3,2-0.7,2.8-1.4c0.8-0.6,1.4-1.4,1.8-2.4c0.4-1,0.6-2,0.6-3c0-0.7-0.1-1.4-0.4-2.1c-0.3-0.7-0.6-1.2-1.1-1.6
			c-0.5-0.4-1-0.7-1.7-1c-0.7-0.2-1.8-0.3-3.5-0.3h-3.6l-1.7,0l-1.2,0c-0.2,3.3-0.4,8-0.6,14.2c-0.2,6.1-0.3,9.7-0.3,10.8l0,2.2
			c-0.4,0-0.7,0-1,0C780,638.4,779.7,638.4,779.4,638.5z"/>
		<path class="st1" d="M801.4,619.6c0.1-0.5,0.2-1,0.2-1.6c1.4-0.4,2.6-0.7,3.7-0.8c1-0.1,2.1-0.2,3.2-0.2c1.2,0,2.4,0.1,3.4,0.3
			s1.9,0.6,2.6,1.1c0.7,0.5,1.1,1.1,1.3,1.7c0.2,0.7,0.3,1.3,0.3,2c0,0.7,0,1.6-0.1,2.6c0,1.1-0.1,2.2-0.2,3.4
			c-0.1,1.2-0.2,2.7-0.2,4.6c-0.1,1.8-0.1,3.1-0.1,3.9v1.7c-0.4,0-0.7,0-0.9,0c-0.2,0-0.5,0-0.9,0c0.2-2.1,0.3-3.8,0.4-5.2
			c0.1-1.3,0.1-2.7,0.2-4.3s0.1-2.9,0.2-4.3c-0.4,0.4-0.8,0.6-1,0.8c-0.2,0.2-0.5,0.3-0.8,0.5c-0.3,0.1-0.6,0.3-1,0.4
			c-0.4,0.1-0.7,0.3-1.1,0.4c-0.3,0.1-1.1,0.3-2.3,0.7c-1.2,0.3-2.1,0.6-2.6,0.7c-1.2,0.4-2.1,0.8-2.8,1.1c-0.7,0.4-1.3,0.8-1.8,1.2
			c-0.4,0.4-0.7,0.8-0.9,1.3c-0.2,0.5-0.3,1.1-0.3,1.7c0,0.9,0.3,1.7,0.8,2.3c0.5,0.7,1.2,1.1,2.1,1.4c0.8,0.3,1.8,0.4,3,0.4
			c0.6,0,1.1,0,1.7-0.1s1.1-0.1,1.5-0.3c0.5-0.1,1.2-0.3,2.1-0.6c-0.1,0.5-0.2,1.1-0.3,1.6c-1.1,0.2-2,0.4-2.7,0.4
			c-0.7,0.1-1.4,0.1-2,0.1c-1.2,0-2.2-0.1-3.2-0.3c-1-0.2-1.8-0.5-2.5-1.1c-0.7-0.5-1.2-1.1-1.5-1.8c-0.3-0.7-0.5-1.4-0.5-2.2
			c0-0.6,0.1-1.1,0.3-1.7c0.2-0.5,0.5-1.1,0.9-1.6c0.3-0.4,0.8-0.8,1.3-1.2c0.7-0.4,1.4-0.8,2.2-1.1c0.9-0.4,1.9-0.7,3-1
			c0.3-0.1,1.4-0.4,3.4-0.9c0.9-0.2,1.8-0.5,2.6-0.9s1.4-0.8,1.9-1.5c0.4-0.6,0.7-1.3,0.7-1.9c0-0.5-0.1-0.9-0.3-1.4
			c-0.2-0.4-0.6-0.9-1.1-1.2c-0.5-0.4-1.2-0.7-2-0.8c-0.8-0.2-1.6-0.2-2.5-0.2c-1,0-2,0.1-2.9,0.2s-1.6,0.3-2.2,0.5
			C803.1,619,802.4,619.3,801.4,619.6z"/>
		<path class="st1" d="M821.4,638.5c0.2-2.9,0.3-6.4,0.5-10.3c0.2-4,0.2-6.9,0.2-8.8l0-1.9c0.3,0,0.5,0,0.8,0c0.3,0,0.5,0,0.8,0
			l-0.2,3.9c0.5-0.9,0.9-1.7,1.3-2.1c0.4-0.5,0.9-0.9,1.4-1.2c0.5-0.3,1.2-0.6,1.9-0.7s1.5-0.3,2.2-0.3c0.6,0,1.1,0.1,1.7,0.2
			c0,0.5,0,0.9,0.1,1.4c-0.9-0.2-1.7-0.4-2.4-0.4c-0.7,0-1.3,0.1-1.8,0.3c-0.5,0.2-1,0.4-1.5,0.8c-0.5,0.3-0.9,0.8-1.4,1.4
			c-0.4,0.6-0.8,1.2-1,1.9c-0.3,0.8-0.5,1.8-0.6,2.9c-0.1,1.8-0.2,3.8-0.3,6.1c-0.1,3.1-0.1,5.3-0.1,6.8c-0.4,0-0.6,0-0.8,0
			S821.8,638.4,821.4,638.5z"/>
		<path class="st1" d="M843.4,637.1c-0.1,0.4-0.2,0.9-0.3,1.3c-1.1,0.3-2.2,0.4-3.1,0.4c-0.8,0-1.5-0.1-2.1-0.3
			c-0.6-0.2-1.1-0.5-1.5-0.9s-0.6-1-0.8-1.5c-0.1-0.5-0.2-1.1-0.2-1.8c0-0.1,0-0.3,0-0.5c0-0.2,0-0.8,0.1-1.6l0.7-13.8h-2.6
			c0.1-0.4,0.1-0.7,0.1-1.1h2.5c0.1-0.9,0.1-2.2,0.2-3.9c0.5-0.1,1-0.2,1.4-0.3c-0.1,2.2-0.1,3.6-0.1,4.2h6.2
			c-0.1,0.4-0.1,0.8-0.1,1.1h-6.2l-0.7,14.3l0,0.9c0,1.2,0.1,2,0.4,2.5c0.3,0.5,0.7,0.9,1.1,1.1c0.5,0.2,1,0.4,1.5,0.4
			c0.4,0,0.8,0,1.2-0.1C841.7,637.6,842.4,637.4,843.4,637.1z"/>
		<path class="st1" d="M845.3,638c0-0.7-0.1-1.3-0.2-1.8c1.1,0.5,2.1,0.8,3.1,1c1,0.2,1.9,0.3,2.7,0.3c1.1,0,2-0.2,2.7-0.5
			c0.8-0.3,1.3-0.8,1.7-1.4s0.6-1.2,0.6-1.9c0-0.3,0-0.6-0.1-0.8s-0.2-0.5-0.3-0.8s-0.3-0.5-0.5-0.7c-0.2-0.2-0.4-0.5-0.7-0.8
			c-0.3-0.3-0.7-0.6-1.1-1c-0.4-0.4-1.1-0.9-2-1.6c-0.9-0.7-1.6-1.4-2.2-1.9c-0.6-0.5-1.1-1.1-1.4-1.6c-0.4-0.5-0.7-1.1-0.8-1.5
			s-0.2-0.9-0.2-1.4c0-0.8,0.3-1.6,0.8-2.3c0.5-0.8,1.2-1.3,2.2-1.7c1-0.4,2.2-0.6,3.6-0.6c1.2,0,2.6,0.2,4.1,0.5
			c0,0.6,0.1,1.2,0.1,1.8c-0.9-0.4-1.7-0.6-2.4-0.8s-1.4-0.2-2.1-0.2c-0.9,0-1.7,0.1-2.5,0.4c-0.8,0.3-1.3,0.7-1.7,1.2
			c-0.4,0.5-0.6,1.1-0.6,1.7c0,0.3,0,0.6,0.1,0.9c0.1,0.3,0.2,0.6,0.4,0.9c0.2,0.3,0.4,0.6,0.7,0.9c0.3,0.3,0.7,0.7,1.1,1.1
			s1.1,1,2,1.7s1.5,1.3,1.9,1.6c0.4,0.4,0.8,0.7,1.1,1s0.6,0.6,0.9,1c0.3,0.4,0.5,0.7,0.7,1.1c0.2,0.3,0.3,0.7,0.4,1.1
			c0.1,0.4,0.1,0.7,0.1,1.1c0,0.9-0.3,1.7-0.8,2.5c-0.5,0.8-1.3,1.4-2.2,1.8s-2.2,0.7-3.5,0.7c-0.5,0-1.2,0-1.9-0.1
			c-0.8-0.1-1.4-0.2-1.9-0.3S846,638.2,845.3,638z"/>
	</g>
</g>
</svg>
